# xmcd CD database file
#
# Track frame offsets:
#	150
#	18470
#	41255
#	59535
#	67760
#
# Disc length: 1076 seconds
#
# Revision: 0
# Processed by: cddbd v1.5.1PL0 Copyright (c) Steve Scherf et al.
# Submitted via: CDex 1.51
#
DISCID=37043205
DTITLE=ナミ&ロビン(岡村明美/山口由里子) - hurricane girls
DYEAR=2004
DGENRE=Anime
TTITLE0=hurricane girls
TTITLE1=hurricane girls(Remix Version)(Remixed by kors k(Upsurge))
TTITLE2=hurricane girls(カラオケVersion)
TTITLE3=メッセージ1(岡村明美)
TTITLE4=メッセージ2(山口由里子)
EXTD=YEAR: 2004
EXTT0=
EXTT1=
EXTT2=
EXTT3=
EXTT4=
PLAYORDER=
